<?xml version="1.0" encoding="UTF-8" standalone="no"?>
<!-- Created with Inkscape (http://www.inkscape.org/) -->

<svg
   xmlns:dc="http://purl.org/dc/elements/1.1/"
   xmlns:cc="http://creativecommons.org/ns#"
   xmlns:rdf="http://www.w3.org/1999/02/22-rdf-syntax-ns#"
   xmlns:svg="http://www.w3.org/2000/svg"
   xmlns="http://www.w3.org/2000/svg"
   xmlns:sodipodi="http://sodipodi.sourceforge.net/DTD/sodipodi-0.dtd"
   xmlns:inkscape="http://www.inkscape.org/namespaces/inkscape"
   width="230"
   height="180"
   id="svg2"
   version="1.1"
   inkscape:version="0.48.2 r9819"
   sodipodi:docname="logotipo_carnitas.svg">
  <defs
     id="defs4">
    <inkscape:path-effect
       effect="spiro"
       id="path-effect2999"
       is_visible="true" />
  </defs>
  <sodipodi:namedview
     id="base"
     pagecolor="#000000"
     bordercolor="#666666"
     borderopacity="1.0"
     inkscape:pageopacity="0"
     inkscape:pageshadow="2"
     inkscape:zoom="0.7"
     inkscape:cx="388.47432"
     inkscape:cy="53.335984"
     inkscape:document-units="px"
     inkscape:current-layer="layer2"
     showgrid="false"
     inkscape:snap-global="true"
     inkscape:snap-nodes="true"
     inkscape:snap-smooth-nodes="false"
     inkscape:snap-midpoints="false"
     inkscape:window-width="1280"
     inkscape:window-height="657"
     inkscape:window-x="-8"
     inkscape:window-y="-8"
     inkscape:window-maximized="1"
     inkscape:snap-bbox="true"
     inkscape:bbox-nodes="true"
     inkscape:bbox-paths="true" />
  <metadata
     id="metadata7">
    <rdf:RDF>
      <cc:Work
         rdf:about="">
        <dc:format>image/svg+xml</dc:format>
        <dc:type
           rdf:resource="http://purl.org/dc/dcmitype/StillImage" />
        <dc:title />
      </cc:Work>
    </rdf:RDF>
  </metadata>
  <g
     inkscape:label="Capa 1"
     inkscape:groupmode="layer"
     id="layer1"
     transform="translate(0,-872.35809)" />
  <g
     inkscape:groupmode="layer"
     id="layer2"
     inkscape:label="logo"
     transform="translate(0,-872.35809)">
    <g
       id="g3805"
       transform="matrix(0.99672866,0,0,1.0950768,-79.131297,725.32336)">
      <path
         sodipodi:nodetypes="csssc"
         inkscape:connector-curvature="0"
         id="path3802"
         d="m 211.6952,275.94021 c 17.5,6.60714 20.62623,13.92197 33.12623,20.52911 12.5,6.60715 19.46428,-7.85714 18.57143,-10 -0.89286,-2.14285 -6.07143,-6.96428 -7.67857,-7.5 -1.60715,-0.53571 -12.77109,-5.98334 -12.77109,-5.98334"
         style="fill:none;stroke:#ffffff;stroke-width:0.95717049px;stroke-linecap:butt;stroke-linejoin:miter;stroke-opacity:1" />
      <path
         sodipodi:nodetypes="ccssssssaaassssccccsscscsaascssscsssccccscccccccsccsscsscc"
         inkscape:connector-curvature="0"
         id="path2997"
         d="m 247.67853,192.54075 40.71429,3.21429 c 2.50018,-1.31289 5.06366,-2.50521 7.67857,-3.57143 1.42108,-0.57944 2.86659,-1.12432 4.3744,-1.41026 1.5078,-0.28594 3.09129,-0.30366 4.55417,0.16026 1.71002,0.54229 3.20962,1.76618 4.00948,3.37194 0.7999,1.60577 0.86489,3.57786 0.0977,5.19949 -0.66183,1.39893 -1.86279,2.45929 -3.07031,3.42724 -1.20752,0.96795 -2.27452,2.08348 -3.35826,3.1799 -2.17421,2.19964 -4.08077,4.65766 -6.30076,6.8111 -4.95957,4.81089 -10.62763,8.84837 -15.63763,13.60672 -9.61647,9.13344 -18.94531,18.60608 -27.62832,28.63112 -2.40791,2.78008 -4.85419,5.57392 -6.76489,8.71655 -1.41301,2.32405 -2.3727,6.33211 -3.40377,9.10831 -0.66144,1.78096 -1.35226,3.05513 -2.21097,3.05223 l -29.03703,-0.098 -10.89153,-0.0368 -16.07154,-0.0543 -13.30342,-0.0449 -39.71269,-0.13403 c -3.39977,-3.7841 -5.99865,-5.22198 -6.96218,-10.21692 -0.30504,-1.58106 -0.22164,-6.4713 -0.25254,-8.08122 -3.53828,-11.90704 -10.01208,-22.93001 -18.68782,-31.81981 -1.16407,-1.19279 -2.35701,-2.35701 -3.53553,-3.53553 L 91.923882,211.66273 c -0.554995,-0.55499 -1.10869,-1.11948 -1.54103,-1.77455 -0.43234,-0.65508 -0.73981,-1.40149 -0.8236,-2.18188 -0.08379,-0.7804 0.06078,-1.5874 0.43304,-2.27839 0.372258,-0.69098 0.969133,-1.25913 1.679052,-1.59387 -2.466867,0.43108 -5.065546,0.0726 -7.323607,-1.01014 -1.555775,-0.74602 -2.983003,-1.86938 -3.793161,-3.39275 -0.405079,-0.76168 -0.647872,-1.61464 -0.661342,-2.47724 -0.01347,-0.86259 0.207188,-1.73348 0.666432,-2.46378 0.504484,-0.80224 1.276586,-1.41055 2.119778,-1.84313 0.843193,-0.43258 1.760086,-0.70088 2.678446,-0.93479 2.4727,-0.62982 5.039039,-1.02966 7.576144,-0.75761 3.441409,0.36902 6.731313,2.01398 9.091376,4.54569 l 33.33503,-4.54569 c -0.25254,-3.53554 1.76777,-14.14214 1.76777,-14.14214 0,0 6.81853,-8.33376 11.36421,-9.34391 -0.50507,-3.03046 0,-2.52538 -2.0203,-6.81853 -2.02031,-4.29315 5.55584,-9.84899 5.55584,-9.84899 0,0 -6.81853,-3.28299 -11.42736,-15.59422 6.25033,-0.69449 15.72051,1.07328 21.59201,5.4927 11.6799,-4.79823 21.40262,-3.53553 26.1377,-2.20971 4.9036,-1.35103 5.88882,-4.10524 14.71035,-3.72494 1.45245,3.67918 0.0796,6.07416 -2.14657,8.08122 2.74811,3.07255 4.53162,6.1451 4.92449,9.84899 0,0 7.07107,-0.50508 9.21764,2.77792 2.14658,3.283 -3.15672,7.70241 -3.15672,7.70241 l 0.3788,1.6415 c 0,0 2.39912,3.283 8.46003,3.03046 6.06092,-0.25254 7.19734,-1.26269 10.98541,1.13642 3.78807,2.39911 3.91434,6.56599 3.91434,6.56599 0,0 7.95495,-1.01015 12.37437,4.29315 4.41942,5.3033 2.77792,5.55584 2.77792,7.32361 0,1.76776 -4.54569,5.42957 -4.54569,5.42957 z"
         style="fill:#ffffff;fill-opacity:1;stroke:#ffffff;stroke-width:0.95717049px;stroke-linecap:butt;stroke-linejoin:miter;stroke-opacity:1" />
      <path
         sodipodi:nodetypes="ccssc"
         inkscape:connector-curvature="0"
         id="path3798"
         d="m 131.71602,275.67018 -17.78745,9.37057 c 0,0 5.08929,6.60714 7.67857,8.66072 2.58929,2.05357 8.30357,5.625 17.85715,1.78571 9.55357,-3.83929 32.74971,-20.25972 31.96442,-19.68297"
         style="fill:none;stroke:#ffffff;stroke-width:0.95717049px;stroke-linecap:butt;stroke-linejoin:miter;stroke-opacity:1" />
      <path
         sodipodi:nodetypes="cssssc"
         inkscape:connector-curvature="0"
         id="path3800"
         d="m 184.73213,275.84911 c -4.66267,0.27369 -6.84499,4.5404 -7.28794,9.92825 -0.60448,7.3527 2.89387,9.11451 9.60938,9.44196 7.99387,0.38979 11.69974,1.24971 17.85715,-0.80357 2.82953,-0.94354 6.5034,-6.81567 5.80357,-9.10714 -2.379,-7.78969 -10.00241,-9.68057 -9.91062,-9.4052"
         style="fill:none;stroke:#ffffff;stroke-width:0.95717049px;stroke-linecap:butt;stroke-linejoin:miter;stroke-opacity:1" />
    </g>
    <path
       style="fill:#ffffff;fill-opacity:1;fill-rule:evenodd;stroke:#ffffff;stroke-width:1.18599999;stroke-miterlimit:4;stroke-opacity:1;stroke-dasharray:none;stroke-dashoffset:0"
       d="m 48.724903,177.11486 c -3.567613,-1.10297 -6.77954,-3.56295 -9.852218,-7.54571 -1.67098,-2.16591 -2.902163,-4.07399 -2.735963,-4.24019 0.166201,-0.1662 3.93462,-2.4134 8.374266,-4.99377 l 8.072083,-4.69159 18.192526,0.19051 18.192526,0.19051 -9.144483,6.52502 c -15.735925,11.22833 -20.742285,14.04445 -26.28734,14.78687 -1.571429,0.21039 -3.736558,0.11065 -4.811397,-0.22165 z"
       id="path2999"
       inkscape:connector-curvature="0"
       transform="translate(0,872.35809)" />
    <path
       style="fill:#ffffff;fill-opacity:1;fill-rule:evenodd;stroke:#ffffff;stroke-width:1.18599999;stroke-miterlimit:4;stroke-opacity:1;stroke-dasharray:none;stroke-dashoffset:0"
       d="m 104.29482,174.99704 c -4.08438,-0.8377 -5.408598,-2.85069 -5.367069,-8.15869 0.03978,-5.08399 1.633269,-8.92498 4.251409,-10.24766 1.10491,-0.55821 4.72401,-0.90617 9.49274,-0.91268 6.33658,-0.009 8.20988,0.246 10.53492,1.43215 3.42772,1.7487 6.64084,6.33635 6.5549,9.35902 -0.0686,2.4127 -2.44743,6.33801 -4.74877,7.83594 -1.7189,1.11882 -16.26765,1.60471 -20.71813,0.69192 l 0,0 z"
       id="path3001"
       inkscape:connector-curvature="0"
       transform="translate(0,872.35809)" />
    <path
       style="fill:#ffffff;fill-opacity:1;fill-rule:evenodd;stroke:#ffffff;stroke-width:1.18599999;stroke-miterlimit:4;stroke-opacity:1;stroke-dasharray:none;stroke-dashoffset:0"
       d="m 164.88122,176.41483 c -2.01029,-1.15302 -6.99243,-4.86938 -11.07143,-8.25859 -4.07899,-3.38921 -9.691,-7.50996 -12.47112,-9.15722 l -5.05478,-2.99503 12.29692,0.26818 c 11.75789,0.25642 12.36322,0.20187 13.80954,-1.24446 l 1.51264,-1.51263 6.26671,3.14733 c 6.30622,3.16717 12.29517,8.43285 12.29517,10.8103 0,1.52723 -1.97799,5.32981 -3.83355,7.36978 -3.81348,4.19247 -8.28947,4.70431 -13.7501,1.57234 z"
       id="path3003"
       inkscape:connector-curvature="0"
       transform="translate(0,872.35809)" />
    <path
       style="fill:#ffffff;fill-opacity:1;fill-rule:evenodd;stroke:#ffffff;stroke-width:1.18599999;stroke-miterlimit:4;stroke-opacity:1;stroke-dasharray:none;stroke-dashoffset:0"
       d="m 169.35703,179.74904 c -3.88688,-0.81814 -8.49764,-3.7835 -16.53581,-10.63482 -4.70824,-4.01307 -6.4498,-5.39455 -8.92404,-7.07894 -3.39883,-2.31382 -7.42215,-4.511 -10.88517,-5.94452 l -1.52186,-0.62998 -3.96134,0.0481 -3.96133,0.0481 1.23628,0.79545 c 2.50971,1.61483 4.64456,4.23704 5.89457,7.24026 0.66894,1.60717 0.71989,3.57107 0.13202,5.08929 -1.28384,3.31559 -3.77716,6.34628 -5.86625,7.13055 -1.73673,0.652 -3.61256,1.06954 -5.8216,1.29583 -1.8026,0.18466 -2.86756,0.15932 -8.08362,-0.1923 -7.57335,-0.51053 -9.12491,-0.83595 -11.082236,-2.32439 -1.847891,-1.40522 -2.669202,-3.58861 -2.659624,-7.07041 0.009,-3.25916 0.652875,-6.47824 1.71329,-8.56523 0.555043,-1.09238 1.67079,-2.48787 2.40922,-3.01327 l 0.66769,-0.47507 -5.160553,0 -5.160554,0 -1.355182,1.02006 c -16.837896,12.67404 -27.467248,19.5983 -32.694468,21.29809 -3.840757,1.24894 -7.21066,1.34147 -10.320894,0.28337 -4.216647,-1.43449 -6.580236,-3.59498 -12.045441,-11.01038 l -1.525288,-2.06957 8.738966,-5.05773 c 4.806432,-2.78176 8.769588,-5.10728 8.807013,-5.16784 0.03742,-0.0606 -0.738016,-1.03183 -1.7232,-2.15841 -4.260763,-4.87223 -4.900295,-6.59202 -5.078007,-13.65545 l -0.107827,-4.28571 -0.691257,-2.32143 C 40.508097,121.3194 34.600903,110.35796 27.286508,101.71769 25.919473,100.10285 18.009971,91.317272 16.153554,89.351618 l -0.632429,-0.669643 99.353085,0 99.35307,0 -0.43291,0.470812 c -0.2381,0.258946 -2.44184,2.343472 -4.89719,4.632281 -6.57234,6.126537 -7.59718,7.131632 -11.30906,11.091242 -7.85082,8.37481 -15.20481,16.75634 -21.20054,24.16281 -5.39366,6.66274 -7.30031,9.20973 -8.95632,11.96428 -1.1175,1.85882 -1.57715,3.00014 -2.73282,6.78572 -0.49472,1.62053 -0.97238,3.16376 -1.06148,3.4294 -0.16102,0.48008 -0.14097,0.4941 3.35269,2.3454 1.93307,1.02434 5.00128,2.60479 6.81824,3.51211 l 3.30357,1.64967 2.42232,2.4335 c 1.40601,1.41249 2.81079,3.02041 3.34822,3.83238 0.80488,1.21605 0.92589,1.51535 0.92589,2.28994 0,1.09161 -0.69775,3.23724 -1.55877,4.79331 -2.0354,3.67845 -4.98839,6.36027 -8.08409,7.34174 -1.32018,0.41855 -3.63783,0.57885 -4.808,0.33254 z m 1.66757,-0.89065 c -3.88585,-0.27551 -6.78529,-1.82991 -13.95778,-7.48284 -1.49777,-1.18045 -2.72321,-2.11417 -2.72321,-2.07494 0,0.13127 3.1043,2.69182 4.94391,4.07793 3.78469,2.85169 7.17709,4.80434 9.3418,5.37713 0.5426,0.14357 1.7014,0.25328 2.58929,0.24515 l 1.60714,-0.0147 -1.80115,-0.1277 0,1e-5 z m 2.28106,-0.1199 c -0.12891,-0.0516 -0.28293,-0.0452 -0.34226,0.0141 -0.0593,0.0593 0.0461,0.10155 0.23437,0.0938 0.20803,-0.009 0.25034,-0.0509 0.10789,-0.10788 l 0,0 z m 1.57366,-0.41373 c 0.14732,-0.0952 0.1875,-0.1731 0.0893,-0.1731 -0.0982,0 -0.29911,0.0779 -0.44643,0.1731 -0.14732,0.0952 -0.1875,0.1731 -0.0893,0.1731 0.0982,0 0.29911,-0.0779 0.44643,-0.1731 z M 53.484231,177.84564 c -0.128907,-0.0516 -0.282925,-0.0453 -0.342262,0.0141 -0.05934,0.0593 0.04613,0.10154 0.234375,0.0938 0.208026,-0.009 0.250339,-0.0509 0.107887,-0.10788 l 0,1e-5 z m 1.25,-0.17858 c -0.128907,-0.0516 -0.282925,-0.0452 -0.342262,0.0141 -0.05934,0.0593 0.04613,0.10155 0.234375,0.0938 0.208026,-0.009 0.250339,-0.0509 0.107887,-0.10788 l 0,0 z m 0.892857,-0.17857 c -0.128907,-0.0516 -0.282925,-0.0452 -0.342262,0.0141 -0.05934,0.0593 0.04613,0.10155 0.234375,0.0938 0.208027,-0.009 0.250339,-0.0509 0.107887,-0.10788 l 0,0 z m 0.714286,-0.17857 c -0.128907,-0.0516 -0.282925,-0.0452 -0.342262,0.0141 -0.05934,0.0593 0.04613,0.10154 0.234375,0.0938 0.208026,-0.009 0.250339,-0.0509 0.107887,-0.10789 l 0,1e-5 z m -9.676339,-0.50301 c -0.245536,-0.14037 -0.526786,-0.25521 -0.625,-0.25521 -0.09822,0 0.02232,0.11484 0.267857,0.25521 0.245536,0.14036 0.526786,0.2552 0.625,0.2552 0.09821,0 -0.02232,-0.11484 -0.267857,-0.2552 z m 12.142857,-0.26786 c 0.147321,-0.0952 0.1875,-0.1731 0.08929,-0.1731 -0.09821,0 -0.299108,0.0779 -0.446429,0.1731 -0.147321,0.0952 -0.1875,0.1731 -0.08929,0.1731 0.09821,0 0.299107,-0.0779 0.446429,-0.1731 z m -13.050595,-0.0715 c -0.04092,-0.0393 -0.684552,-0.47867 -1.430285,-0.9763 -0.745734,-0.49763 -1.951092,-1.43858 -2.678572,-2.09099 -1.255345,-1.12582 -1.244775,-1.1102 0.20762,0.30665 0.841671,0.82108 2.0452,1.79421 2.674509,2.16252 1.028428,0.60188 1.438807,0.80198 1.226728,0.59812 l 0,0 z m 14.122023,-0.37491 c 0.245536,-0.14036 0.366072,-0.2552 0.267858,-0.2552 -0.09821,0 -0.379465,0.11484 -0.625,0.2552 -0.245536,0.14036 -0.366072,0.2552 -0.267858,0.2552 0.09822,0 0.379465,-0.11484 0.625,-0.2552 z m 62.56965,-0.33665 c 1.67819,-0.43464 2.59352,-0.80408 1.44821,-0.58451 -2.11141,0.40477 -7.06209,0.78753 -11.16072,0.86289 l -1.875,0.0345 1.42857,0.12398 c 0.78572,0.0682 2.99554,0.10071 4.91072,0.0723 3.05327,-0.0453 3.69966,-0.10804 5.24822,-0.50911 l 0,0 z m 56.71606,-0.62303 c 0,-0.0491 -0.24107,0.14168 -0.53571,0.42397 -0.29464,0.28228 -0.53571,0.55342 -0.53571,0.60253 0,0.0491 0.24107,-0.14168 0.53571,-0.42396 0.29464,-0.28229 0.53571,-0.55343 0.53571,-0.60254 z m -116.249995,-0.6535 c 0,-0.0491 -0.401786,0.11432 -0.892857,0.36316 -0.491072,0.24884 -0.892858,0.49262 -0.892858,0.54173 0,0.0491 0.401786,-0.11431 0.892858,-0.36316 0.491071,-0.24884 0.892857,-0.49262 0.892857,-0.54173 z m 63.943465,-0.91788 c 0.78618,-0.84323 1.68629,-2.06914 2.10782,-2.87075 0.41896,-0.79671 0.0564,-0.3783 -0.61563,0.7105 -0.3776,0.61175 -1.21066,1.62872 -1.85125,2.25991 -0.64059,0.6312 -1.00265,1.0609 -0.80457,0.9549 0.19807,-0.10601 0.7217,-0.58056 1.16363,-1.05456 z m 53.20324,0.47207 c 0.53899,-0.75695 0.314,-0.65734 -0.28291,0.12525 -0.27501,0.36056 -0.40883,0.5992 -0.29736,0.53031 0.11146,-0.0689 0.37258,-0.36389 0.58027,-0.65556 z m -79.55334,-0.26776 c -1.627031,-1.58129 -2.174774,-3.70945 -1.997915,-7.76256 0.170827,-3.9149 1.027593,-6.51666 2.774205,-8.42448 1.04002,-1.13601 1.97336,-1.66079 3.41819,-1.92189 l 0.98001,-0.1771 -1.00226,0.0677 c -2.696,0.1822 -4.885592,2.57782 -5.868313,6.42049 -0.783343,3.06305 -0.914591,7.11426 -0.29505,9.10735 0.346677,1.11528 1.209916,2.38065 2.047733,3.00165 0.91081,0.67511 0.90063,0.61913 -0.0566,-0.31119 l 0,0 z m -36.343365,-0.007 c 0,-0.0491 -0.160715,-0.003 -0.357143,0.10185 -0.196429,0.10512 -0.357143,0.23131 -0.357143,0.28042 0,0.0491 0.160714,0.003 0.357143,-0.10185 0.196428,-0.10513 0.357143,-0.23132 0.357143,-0.28042 z m 0.892857,-0.53572 c 0,-0.0491 -0.160714,-0.003 -0.357143,0.10185 -0.196429,0.10513 -0.357143,0.23132 -0.357143,0.28043 0,0.0491 0.160714,0.003 0.357143,-0.10186 0.196429,-0.10512 0.357143,-0.23131 0.357143,-0.28042 z M 181.47631,171.8253 c 0.39844,-0.7218 0.72298,-1.38283 0.7212,-1.46895 -0.002,-0.0861 -0.23224,0.25873 -0.51214,0.76634 -0.27989,0.5076 -0.69557,1.22495 -0.92372,1.59411 -0.22815,0.36916 -0.32369,0.61487 -0.2123,0.54603 0.11138,-0.0688 0.52852,-0.71573 0.92696,-1.43753 l 0,0 z m -115.525561,0.8619 c 0,-0.0491 -0.160714,-0.003 -0.357143,0.10185 -0.196428,0.10512 -0.357143,0.23131 -0.357143,0.28042 0,0.0491 0.160715,0.003 0.357143,-0.10185 0.196429,-0.10513 0.357143,-0.23132 0.357143,-0.28042 z m 1.428571,-0.89286 c 0,-0.0491 -0.160714,-0.003 -0.357142,0.10185 -0.196429,0.10513 -0.357143,0.23132 -0.357143,0.28042 0,0.0491 0.160714,0.003 0.357143,-0.10185 0.196428,-0.10512 0.357142,-0.23131 0.357142,-0.28042 z m 3.571429,-2.28095 c 3.285784,-2.18581 9.846039,-6.81572 10.535714,-7.43561 0.388647,-0.34932 0.365534,-0.34459 -0.178571,0.0366 -0.34375,0.24078 -2.513393,1.76221 -4.821429,3.38094 -2.308035,1.61874 -5.200893,3.61103 -6.428571,4.42732 -1.227679,0.81629 -2.3125,1.5659 -2.410714,1.6658 -0.297052,0.30213 0.190651,-0.004 3.303571,-2.075 z m 111.601671,-0.0279 c 0,-0.0982 -0.0779,-0.058 -0.1731,0.0893 -0.0952,0.14732 -0.1731,0.34822 -0.1731,0.44643 0,0.0982 0.0779,0.058 0.1731,-0.0893 0.0952,-0.14733 0.1731,-0.34822 0.1731,-0.44643 z m -52.49433,-1.07143 c 0.58742,-1.56776 0.56486,-2.91835 -0.0746,-4.46429 -0.62042,-1.49997 -1.60918,-3.16756 -2.53449,-4.27453 -1.58065,-1.89096 -4.79525,-3.95128 -6.42357,-4.11703 l -0.87828,-0.0894 0.89285,0.25874 c 1.76804,0.51235 3.77648,1.68922 5.156,3.02123 2.32009,2.24018 3.82538,4.98001 3.98573,7.25457 0.0776,1.1009 -0.0571,1.72667 -0.7498,3.48215 -0.0957,0.24257 -0.0823,0.29986 0.0419,0.17857 0.10054,-0.0982 0.36346,-0.66072 0.58425,-1.25 l 0,0 z m 24.10694,0.74196 c 0,-0.0339 -0.1808,-0.21469 -0.40178,-0.40178 l -0.40179,-0.34018 0.34018,0.40178 c 0.31968,0.37758 0.46339,0.48308 0.46339,0.34018 z m 28.86714,-2.12929 c -0.0489,-0.1209 -0.086,0.0213 -0.0823,0.3159 0.004,0.29464 0.0437,0.39356 0.0889,0.21982 0.0453,-0.17375 0.0423,-0.41482 -0.007,-0.53572 l 1e-5,0 z M 35.995412,166.19288 c -0.240043,-0.48504 -0.386772,-0.96226 -0.326065,-1.06049 0.06071,-0.0982 0.550643,-0.43049 1.088747,-0.73836 0.538103,-0.30787 0.978369,-0.5987 0.978369,-0.64629 0,-0.0705 -1.374289,0.67409 -2.474384,1.34072 -0.189067,0.11457 -0.0972,0.34868 0.418538,1.06655 0.363427,0.50586 0.68113,0.91975 0.706007,0.91975 0.02488,0 -0.15117,-0.39685 -0.391212,-0.88188 l 0,0 z m 144.616608,-2.84612 c -0.40102,-0.47897 -1.46026,-1.56663 -2.35388,-2.41703 -1.31057,-1.24717 -1.97565,-1.72157 -3.43929,-2.45322 -0.99799,-0.49888 -1.77362,-0.86361 -1.72361,-0.81051 0.05,0.0531 0.87511,0.62085 1.83357,1.26167 2.05506,1.37399 3.94714,2.90552 5.30155,4.2913 0.53683,0.54926 1.00636,0.99865 1.04342,0.99865 0.0371,0 -0.26074,-0.39189 -0.66176,-0.87086 l 0,0 z m -141.9827,-0.12385 c 0,-0.0491 -0.160714,-0.003 -0.357142,0.10185 -0.196429,0.10513 -0.357143,0.23132 -0.357143,0.28043 0,0.0491 0.160714,0.003 0.357143,-0.10186 0.196428,-0.10512 0.357142,-0.23131 0.357142,-0.28042 z m 43.75,-1.77315 c 0.122267,-0.14732 0.182124,-0.26785 0.133017,-0.26785 -0.04911,0 -0.189322,0.12053 -0.311588,0.26785 -0.122266,0.14732 -0.182123,0.26786 -0.133016,0.26786 0.04911,0 0.189321,-0.12054 0.311587,-0.26786 z m 53.92857,-4.80446 c 0,-0.15955 -1.60312,-0.99907 -1.9068,-0.99855 -0.17894,3.6e-4 0.1568,0.23521 0.74609,0.52202 1.23321,0.60021 1.16071,0.57044 1.16071,0.47653 z m 20.3125,-0.95419 c -1.7433,-0.0292 -4.59598,-0.0292 -6.33928,0 -1.74331,0.0292 -0.31697,0.0531 3.16964,0.0531 3.48661,0 4.91295,-0.0239 3.16964,-0.0531 z m -73.918328,-0.35675 c -1.148386,-0.0311 -3.076958,-0.0311 -4.285715,-1.8e-4 -1.208757,0.0309 -0.269169,0.0564 2.087973,0.0565 2.357143,1.2e-4 3.346127,-0.0252 2.197742,-0.0562 l 0,-3e-5 z m 81.024508,-2.58722 c -0.36206,-0.25465 -0.54688,-0.12542 -0.84899,0.59366 l -0.30531,0.72669 0.67041,-0.59458 c 0.4084,-0.3622 0.59752,-0.64585 0.48389,-0.72577 l 0,0 z"
       id="path3005"
       inkscape:connector-curvature="0"
       transform="translate(0,872.35809)" />
    <path
       style="fill:#ffffff;fill-opacity:1;fill-rule:evenodd;stroke:#ffffff;stroke-width:1.18599999;stroke-miterlimit:4;stroke-opacity:1;stroke-dasharray:none;stroke-dashoffset:0"
       d="m 168.45075,180.04253 c -3.9893,-1.16792 -7.58195,-3.59812 -17.32143,-11.71682 -4.41989,-3.68436 -5.40445,-4.44768 -7.79519,-6.04355 -2.7439,-1.83161 -6.11351,-3.72864 -9.05291,-5.09663 l -2.34833,-1.09291 -3.30099,-0.0561 -3.30099,-0.0561 1.46116,1.35744 c 3.06358,2.84613 4.87414,6.15981 4.87197,8.9167 -0.001,1.53284 -0.20145,2.31287 -1.00867,3.92913 -1.3972,2.79756 -3.35763,5.03663 -5.15494,5.88762 -2.60471,1.23327 -6.82614,1.80798 -11.3087,1.53958 -9.48053,-0.56766 -12.12573,-1.0016 -14.01055,-2.29839 -2.382026,-1.63887 -3.332899,-3.92609 -3.336226,-8.0249 -0.0033,-4.01679 1.10437,-7.99708 2.828115,-10.16288 0.408081,-0.51274 0.741961,-0.97479 0.741961,-1.02679 0,-0.052 -1.912256,-0.0945 -4.249463,-0.0945 l -4.249468,0 -4.545175,3.36696 c -15.485725,11.47146 -24.702586,17.33679 -29.723746,18.9153 -2.373209,0.74607 -3.535308,0.93255 -5.791725,0.92939 -4.70904,-0.007 -8.640602,-1.94644 -12.247968,-6.0432 -0.844495,-0.95906 -2.649895,-3.22233 -4.011998,-5.02949 l -2.476554,-3.28573 1.728407,-1.00455 c 0.950625,-0.5525 4.460552,-2.5986 7.799838,-4.54689 3.339285,-1.94828 6.493303,-3.78639 7.008928,-4.08469 0.515625,-0.29829 0.9375,-0.58913 0.9375,-0.64631 0,-0.0572 -0.737596,-0.98445 -1.639103,-2.06059 -2.816724,-3.36237 -3.796161,-5.11481 -4.362054,-7.8047 -0.261014,-1.2407 -0.599002,-6.0753 -0.603464,-8.63201 -0.0022,-1.26158 -0.129266,-1.83789 -1.003957,-4.55358 -2.470825,-7.67126 -5.626927,-14.42264 -9.741627,-20.83879 -3.451285,-5.38167 -6.099218,-8.59984 -15.642806,-19.011473 l -2.741697,-2.991072 100.052732,0 100.05273,0 -0.89074,0.872149 c -0.48991,0.479681 -3.26173,3.111378 -6.15964,5.848214 -2.89789,2.736836 -6.43471,6.181422 -7.85961,7.654642 -13.52708,13.98581 -30.0652,33.83922 -32.93419,39.53625 -0.51393,1.02053 -2.95758,8.20612 -2.9538,8.6857 0.002,0.21028 2.93459,1.81281 8.9689,4.90057 l 4.59524,2.35138 2.03707,2.17376 c 2.57048,2.74297 3.50883,3.9005 4.1392,5.10606 0.48736,0.93206 0.49513,0.99086 0.28948,2.1901 -0.82398,4.80511 -5.22423,10.2301 -9.5356,11.75629 -1.39824,0.49496 -4.93852,0.65773 -6.20992,0.28551 l 0,0 z"
       id="path3007"
       inkscape:connector-curvature="0"
       transform="translate(0,872.35809)" />
    <path
       style="fill:#ffffff;fill-opacity:1;fill-rule:evenodd;stroke:#ffffff;stroke-width:1.18599999;stroke-miterlimit:4;stroke-opacity:1;stroke-dasharray:none;stroke-dashoffset:0"
       d="m 166.99909,180.04794 c -3.39127,-1.29054 -6.32362,-3.32363 -15.03732,-10.42582 -8.29501,-6.76094 -10.69917,-8.39081 -16.96526,-11.50133 l -3.18638,-1.58174 -2.48778,0 -2.48777,0 1.44909,1.64192 c 3.15148,3.57089 4.41847,7.01729 3.66334,9.96485 -0.76048,2.96844 -3.75646,7.07199 -5.99818,8.21563 -3.65355,1.86391 -9.91674,2.23113 -19.37308,1.13587 -4.38932,-0.50838 -6.17848,-1.1376 -7.775387,-2.73451 -1.513,-1.513 -2.233464,-3.42462 -2.42641,-6.43805 -0.240518,-3.75638 0.922325,-8.69778 2.601889,-11.05651 0.202271,-0.28406 0.367764,-0.56434 0.367764,-0.62284 0,-0.0585 -1.648977,-0.10636 -3.664391,-0.10636 l -3.664391,0 -2.07535,1.53562 c -5.247816,3.88304 -13.963989,10.12229 -16.906854,12.10232 -11.863448,7.98205 -17.105987,10.13367 -22.91276,9.40378 -4.946459,-0.62176 -8.341534,-2.86949 -12.82084,-8.48815 -2.673846,-3.35396 -4.741128,-6.10602 -4.741128,-6.3116 0,-0.0925 3.636161,-2.28125 8.080357,-4.86396 4.444196,-2.58271 8.343721,-4.87029 8.665613,-5.08351 l 0.585253,-0.38768 -1.4889,-1.8552 c -4.045603,-5.04089 -4.499146,-6.43851 -4.861241,-14.98019 -0.118393,-2.79284 -0.424371,-4.2472 -1.623695,-7.71763 -3.101017,-8.97326 -7.649173,-17.55614 -12.895876,-24.33594 -2.213196,-2.8599 -4.884492,-5.950679 -10.108025,-11.695309 l -4.628656,-5.09041 50.402231,-0.04496 c 27.721226,-0.02473 73.019877,-0.02473 100.663677,0 l 50.26144,0.04496 -5.92257,5.625 c -3.25743,3.09375 -7.44239,7.179849 -9.29995,9.080219 -11.09622,11.352 -25.95174,28.86031 -31.35406,36.95303 -1.04243,1.56158 -1.54241,2.54568 -2.2204,4.37039 -1.2338,3.32059 -2.13922,6.24879 -1.97991,6.40315 0.1687,0.16345 8.32887,4.47202 11.15241,5.88847 l 2.08841,1.04766 2.37587,2.61078 c 2.58042,2.83553 3.72245,4.34656 4.16915,5.51625 0.27011,0.70727 0.26523,0.84424 -0.0822,2.30729 -1.29856,5.46765 -6.19974,10.89851 -10.72889,11.8884 -0.44196,0.0966 -1.80803,0.17493 -3.03571,0.17407 -2.08921,-0.001 -2.33082,-0.0391 -3.77309,-0.58796 l 0,0 z"
       id="path3009"
       inkscape:connector-curvature="0"
       transform="translate(0,872.35809)" />
  </g>
</svg>
